HIERARCHY
ROOT Hips
{
	OFFSET 0.000000 0.000000 0.000000
	CHANNELS 6 Xposition Yposition Zposition Zrotation Yrotation Xrotation 
	JOINT LeftUpLeg_virtual
	{
		OFFSET 0.000000 0.000000 0.000000
		CHANNELS 3 Zrotation Yrotation Xrotation
		JOINT LeftUpLeg
		{
			OFFSET 8.479694 -4.795517 -0.379053
			CHANNELS 3 Zrotation Yrotation Xrotation
			JOINT LeftLeg
			{
				OFFSET 0.485052 -32.551468 0.112863
				CHANNELS 3 Zrotation Yrotation Xrotation
				JOINT LeftFoot
				{
					OFFSET 0.438033 -32.635670 -3.012641
					CHANNELS 3 Zrotation Yrotation Xrotation
					JOINT LeftToeBase
					{
						OFFSET 0.970169 -13.225353 11.864223
						CHANNELS 3 Zrotation Yrotation Xrotation
						End Site
						{
							OFFSET 0.000000 0.000000 0.000000
						}
					}
				}
			}
		}
	}
	JOINT RightUpLeg_virtual
	{
		OFFSET 0.000000 0.000000 0.000000
		CHANNELS 3 Zrotation Yrotation Xrotation
		JOINT RightUpLeg
		{
			OFFSET -8.479694 -4.795517 -0.379053
			CHANNELS 3 Zrotation Yrotation Xrotation
			JOINT RightLeg
			{
				OFFSET -0.484100 -32.551483 0.112903
				CHANNELS 3 Zrotation Yrotation Xrotation
				JOINT RightFoot
				{
					OFFSET -0.438985 -32.635651 -3.012681
					CHANNELS 3 Zrotation Yrotation Xrotation
					JOINT RightToeBase
					{
						OFFSET -0.970169 -13.225354 11.864223
						CHANNELS 3 Zrotation Yrotation Xrotation
						End Site
						{
							OFFSET 0.000000 0.000000 0.000000
						}
					}
				}
			}
		}
	}
	JOINT Spine_virtual
	{
		OFFSET 0.000000 0.000000 0.000000
		CHANNELS 3 Zrotation Yrotation Xrotation
		JOINT Spine
		{
			OFFSET 0.000000 7.722015 1.166203
			CHANNELS 3 Zrotation Yrotation Xrotation
			JOINT Spine1
			{
				OFFSET 0.000000 12.024086 0.248766
				CHANNELS 3 Zrotation Yrotation Xrotation
				JOINT Spine2
				{
					OFFSET -0.000000 11.503036 -0.491240
					CHANNELS 3 Zrotation Yrotation Xrotation
					JOINT Neck_virtual
					{
						OFFSET 0.000000 0.000000 0.000000
						CHANNELS 3 Zrotation Yrotation Xrotation
						JOINT Neck
						{
							OFFSET 0.000000 18.430687 -3.123054
							CHANNELS 3 Zrotation Yrotation Xrotation
							JOINT Head
							{
								OFFSET -0.000000 9.051071 1.034021
								CHANNELS 3 Zrotation Yrotation Xrotation
								End Site
								{
									OFFSET 0.000000 0.000000 0.000000
								}
							}
						}
					}
					JOINT LeftShoulder_virtual
					{
						OFFSET 0.000000 0.000000 0.000000
						CHANNELS 3 Zrotation Yrotation Xrotation
						JOINT LeftShoulder
						{
							OFFSET 6.197824 13.665230 -4.064723
							CHANNELS 3 Zrotation Yrotation Xrotation
							JOINT LeftArm
							{
								OFFSET 7.778132 -0.187073 -1.709282
								CHANNELS 3 Zrotation Yrotation Xrotation
								JOINT LeftForeArm
								{
									OFFSET 21.954697 0.000000 -2.041093
									CHANNELS 3 Zrotation Yrotation Xrotation
									JOINT LeftHand
									{
										OFFSET 22.992908 0.000000 -0.870901
										CHANNELS 3 Zrotation Yrotation Xrotation
										End Site
										{
											OFFSET 0.000000 0.000000 0.000000
										}
									}
								}
							}
						}
					}
					JOINT RightShoulder_virtual
					{
						OFFSET 0.000000 0.000000 0.000000
						CHANNELS 3 Zrotation Yrotation Xrotation
						JOINT RightShoulder
						{
							OFFSET -6.197824 13.665230 -4.064723
							CHANNELS 3 Zrotation Yrotation Xrotation
							JOINT RightArm
							{
								OFFSET -7.778132 -0.187073 -1.709282
								CHANNELS 3 Zrotation Yrotation Xrotation
								JOINT RightForeArm
								{
									OFFSET -21.954697 0.000000 -2.041093
									CHANNELS 3 Zrotation Yrotation Xrotation
									JOINT RightHand
									{
										OFFSET -22.992908 0.000000 -0.870901
										CHANNELS 3 Zrotation Yrotation Xrotation
										End Site
										{
											OFFSET 0.000000 0.000000 0.000000
										}
									}
								}
							}
						}
					}
				}
			}
		}
	}
}
MOTION
Frames: 14
Frame Time: 0.033333
2.949751 80.914253 4.418038 179.845561 -1.503466 179.936402 -0.435375 -0.293614 14.963071 4.782826 -6.678981 -21.053493 2.221572 2.030012 23.749712 -0.675571 -7.058123 -11.991221 0.000000 0.000000 0.000000 3.154696 -1.567840 15.994474 -5.588007 2.986735 -23.118532 0.938707 7.036722 30.407517 13.302711 4.908978 -15.651577 0.000000 0.000000 0.000000 4.809652 1.528602 4.272314 0.127964 -1.147173 -5.894133 0.012315 -2.441826 5.617890 0.018693 -0.011960 -0.032360 -0.325563 -0.952721 6.410844 -3.693259 2.836516 -5.791495 0.000000 0.000000 0.000000 1.317078 -0.375242 3.765631 -13.387531 -4.138789 1.787714 -54.679892 -11.917357 1.092745 6.025826 -21.911761 4.116225 0.000000 0.000000 0.000000 -3.122793 1.082310 3.093132 30.000209 0.417400 8.096784 44.002251 4.924012 3.435506 -1.074645 22.863654 -2.593055 0.000000 0.000000 0.000000 
2.878502 80.905060 4.394369 179.839195 -1.505466 179.878195 -0.373589 -0.272257 14.839440 4.611436 -6.710317 -20.963333 2.246155 2.025458 23.700220 -0.607293 -6.983684 -11.987002 0.000000 0.000000 0.000000 3.167305 -1.544364 15.976887 -5.454978 2.389087 -23.025824 1.174676 7.222503 30.588961 13.619794 5.331825 -15.714891 0.000000 0.000000 0.000000 4.737428 1.509318 4.339793 0.143829 -1.108228 -5.879911 0.026838 -2.419587 5.627672 0.016671 0.010632 -0.015692 -0.290974 -0.911439 6.383650 -3.671960 2.920784 -5.763942 0.000000 0.000000 0.000000 1.301216 -0.360933 3.814838 -13.372234 -4.181975 1.801384 -54.830669 -11.421369 1.138271 6.008379 -21.546747 4.099069 0.000000 0.000000 0.000000 -3.124114 1.056090 3.063615 30.025495 0.339911 8.168202 44.056325 4.796059 3.499101 -1.183184 22.800304 -2.680606 0.000000 0.000000 0.000000 
2.800631 80.905891 4.360601 179.854167 -1.508510 179.920092 -0.348207 -0.415832 14.692080 4.468470 -6.724521 -20.829565 2.349346 2.094752 23.784348 -0.598776 -6.977373 -12.001876 0.000000 0.000000 0.000000 3.165730 -1.631436 15.808305 -5.552175 2.621286 -22.996564 1.189097 7.120576 30.780678 13.556381 5.366975 -15.688827 0.000000 0.000000 0.000000 4.760111 1.394982 4.222609 0.166787 -1.034634 -5.856204 -0.017429 -2.418133 5.680394 -0.001119 -0.009753 -0.028844 -0.284316 -0.904827 6.457206 -3.648021 2.873648 -5.698666 0.000000 0.000000 0.000000 1.309644 -0.277824 3.928258 -13.315083 -3.971148 1.707923 -55.114586 -10.810923 1.005381 5.844450 -21.076379 4.081140 0.000000 0.000000 0.000000 -3.102541 1.083674 3.147208 29.958641 0.371095 8.152466 44.193424 4.606703 3.289015 -1.163463 22.638911 -2.588923 0.000000 0.000000 0.000000 
2.737797 80.911354 4.323035 179.881692 -1.463343 179.924859 -0.280695 -0.539654 14.564689 4.268576 -6.776873 -20.734588 2.560527 2.204581 23.896062 -0.654886 -7.019003 -11.968386 0.000000 0.000000 0.000000 3.171670 -1.729231 15.673674 -5.671782 2.957107 -22.959345 1.185775 6.982351 30.954472 13.444814 5.431404 -15.703740 0.000000 0.000000 0.000000 4.775464 1.261809 4.075781 0.211691 -0.938398 -5.841737 -0.016996 -2.424784 5.737987 -0.000819 -0.009456 -0.017219 -0.295153 -1.046010 6.511900 -3.578729 2.915499 -5.586693 0.000000 0.000000 0.000000 1.280928 -0.298907 3.948809 -13.269336 -3.791397 1.791514 -55.411781 -10.378434 0.809390 5.784441 -20.639770 3.831388 0.000000 0.000000 0.000000 -3.144741 1.121061 3.142824 29.957794 0.398484 8.141077 44.404180 4.477638 3.000044 -1.208283 22.366515 -2.573859 0.000000 0.000000 0.000000 
2.697430 80.924194 4.285830 179.849973 -1.341181 -179.970649 -0.536142 -0.583534 14.435429 4.336741 -6.698961 -20.765086 2.793762 2.245380 24.124705 -0.664652 -6.979454 -12.049570 0.000000 0.000000 0.000000 3.154902 -1.734679 15.535747 -5.735416 2.947658 -22.940129 1.206299 7.005648 31.060760 13.324350 5.559494 -15.625659 0.000000 0.000000 0.000000 4.722146 1.187758 3.826967 0.195242 -0.723558 -5.860382 0.017222 -2.284789 5.785822 0.039210 -0.074515 0.014861 -0.351934 -1.046705 6.599251 -3.412993 2.842882 -5.391314 0.000000 0.000000 0.000000 1.212186 -0.448757 3.986867 -13.167616 -3.701067 1.893343 -55.612585 -10.298615 0.466200 5.693218 -20.188977 3.471757 0.000000 0.000000 0.000000 -3.202301 0.927363 3.192707 29.993526 0.423108 8.094591 44.542221 4.441012 2.732307 -1.269746 21.991433 -2.597630 0.000000 0.000000 0.000000 
2.679668 80.928871 4.258040 179.885121 -1.087286 -179.942290 -0.628031 -0.492400 14.404504 4.331524 -6.863571 -20.843524 3.045268 2.170374 24.442510 -0.638367 -6.862175 -12.073887 0.000000 0.000000 0.000000 3.141720 -1.776577 15.447960 -5.791629 3.147821 -22.916010 1.240938 6.993862 31.062314 13.191711 5.727185 -15.585600 0.000000 0.000000 0.000000 4.789639 1.202744 3.578298 0.141524 -0.783931 -5.848994 -0.023488 -2.405779 5.833812 0.023235 0.003689 0.032550 -0.372894 -1.006222 6.676579 -3.299854 2.889678 -5.232147 0.000000 0.000000 0.000000 1.196653 -0.305287 3.964766 -13.041462 -3.568677 1.842138 -55.734357 -10.655606 -0.045290 5.402526 -19.668249 3.227934 0.000000 0.000000 0.000000 -3.239094 1.109383 3.229799 29.966690 0.468833 8.011999 44.567121 4.595765 2.508646 -1.275977 21.740045 -2.556973 0.000000 0.000000 0.000000 
2.690562 80.932526 4.224203 179.906445 -0.891789 -179.920857 -0.834264 -0.729158 14.350188 4.327010 -6.705948 -20.854217 3.496159 2.497992 24.764147 -0.808777 -6.976870 -12.155613 0.000000 0.000000 0.000000 3.103181 -1.861412 15.322495 -5.757905 3.162462 -22.870106 1.286468 7.128852 31.062041 13.056484 5.903254 -15.492488 0.000000 0.000000 0.000000 4.831065 1.162933 3.271600 -0.001420 -0.761411 -5.745448 -0.078097 -2.389887 5.853145 0.053935 -0.003852 0.012869 -0.312700 -0.960846 6.824462 -3.076184 2.853920 -5.071399 0.000000 0.000000 0.000000 1.206722 -0.352562 4.058395 -12.859336 -3.609763 1.838401 -55.585015 -11.621988 -0.246754 5.055603 -19.105835 2.808215 0.000000 0.000000 0.000000 -3.236865 1.104126 3.293202 30.037915 0.571122 7.884811 44.402862 4.996477 2.401833 -1.266010 21.544052 -2.442811 0.000000 0.000000 0.000000 
2.744160 80.933113 4.205282 179.923329 -0.446143 179.973804 -0.960625 -1.041542 14.279343 4.181482 -6.373031 -20.638779 3.926118 2.711285 25.115012 -0.938161 -7.001092 -12.248234 0.000000 0.000000 0.000000 3.013971 -1.968744 15.196189 -5.725989 3.511796 -22.775698 1.332286 7.191785 31.115675 12.904666 6.082695 -15.437764 0.000000 0.000000 0.000000 4.892270 1.143621 2.971276 -0.219145 -0.792965 -5.556953 -0.033098 -2.384757 5.894187 0.024043 -0.012275 -0.022509 -0.368280 -0.993600 6.925857 -2.991029 2.821943 -4.970257 0.000000 0.000000 0.000000 1.158757 -0.171224 4.070347 -12.606752 -4.038804 1.902938 -55.173872 -13.080264 -0.116340 4.800759 -18.658938 2.607322 0.000000 0.000000 0.000000 -3.227059 1.104673 3.414539 30.121503 0.850292 7.749990 43.988092 5.535234 2.508550 -1.133247 21.494030 -2.261321 0.000000 0.000000 0.000000 
2.850261 80.921761 4.252424 179.900776 0.027389 -179.989896 -0.928629 -1.156650 14.064888 3.933927 -6.237813 -20.608258 4.289473 2.691097 25.504403 -1.043633 -6.984079 -12.209173 0.000000 0.000000 0.000000 2.876420 -2.014583 14.942668 -5.634578 3.812561 -22.720296 1.381095 7.237299 31.190933 12.754285 6.265111 -15.402210 0.000000 0.000000 0.000000 4.939542 1.113113 2.589751 -0.520522 -0.795368 -5.347590 -0.026146 -2.324794 5.892521 0.021229 0.012548 0.090170 -0.347479 -0.912967 6.901737 -2.840568 2.758307 -4.948779 0.000000 0.000000 0.000000 1.180673 -0.224071 4.024539 -12.368748 -4.401899 1.924699 -54.474669 -15.145524 0.321374 4.324924 -18.403977 2.413640 0.000000 0.000000 0.000000 -3.256057 1.120265 3.327904 30.303022 1.038848 7.619012 43.501021 6.280681 2.825894 -1.042367 21.685765 -2.125974 0.000000 0.000000 0.000000 
3.015787 80.915543 4.348379 179.963832 0.475408 179.987110 -1.136668 -1.250029 13.831481 4.093491 -5.969967 -20.593113 4.592837 2.628925 26.093529 -1.071055 -6.877559 -12.304605 0.000000 0.000000 0.000000 2.792420 -2.096535 14.664438 -5.470577 4.223517 -22.605983 1.421875 7.228691 31.280269 12.569467 6.397503 -15.337092 0.000000 0.000000 0.000000 5.093553 1.054792 2.302287 -0.814814 -0.832885 -5.082404 -0.056960 -2.279770 5.924502 0.026639 0.010990 0.005015 -0.397852 -0.949650 6.982410 -2.850769 2.695806 -4.979662 0.000000 0.000000 0.000000 1.146197 -0.164435 4.061546 -12.146370 -4.919661 1.980236 -53.548174 -17.537303 0.781177 3.960956 -18.561193 1.879183 0.000000 0.000000 0.000000 -3.278948 1.176702 3.400372 30.543923 1.315454 7.463278 42.923040 6.950152 3.196406 -0.900313 22.083853 -1.975434 0.000000 0.000000 0.000000 
3.235132 80.902260 4.491586 179.955090 0.991095 -179.981686 -1.228683 -1.383380 13.537778 4.140062 -5.811160 -20.615632 4.940571 2.716234 26.631031 -1.205740 -6.892691 -12.273112 0.000000 0.000000 0.000000 2.686127 -2.140254 14.311941 -5.310007 4.644743 -22.495189 1.463401 7.192379 31.385242 12.409985 6.533098 -15.305154 0.000000 0.000000 0.000000 5.216011 0.985420 2.028111 -1.158732 -0.841749 -4.787956 -0.106379 -2.207990 5.886671 -0.001382 0.010728 0.025727 -0.384083 -0.805596 6.925533 -2.872609 2.600139 -5.041344 0.000000 0.000000 0.000000 1.145553 -0.119210 3.944312 -11.951102 -5.357886 2.038570 -52.520115 -20.008621 0.822396 3.563280 -19.182807 1.694721 0.000000 0.000000 0.000000 -3.281086 1.256417 3.358194 30.742101 1.562878 7.239038 42.318349 7.595091 3.418468 -0.779519 22.716545 -1.867997 0.000000 0.000000 0.000000 
3.506502 80.903152 4.670803 179.974952 1.365561 -179.978299 -1.291413 -1.516014 13.241689 4.225694 -5.634302 -20.606057 5.227323 2.689693 27.086729 -1.356571 -6.923325 -12.147036 0.000000 0.000000 0.000000 2.640212 -2.184836 13.911582 -5.122415 5.074057 -22.274606 1.461779 7.051741 31.425895 12.256024 6.616393 -15.272696 0.000000 0.000000 0.000000 5.362753 0.841102 1.796281 -1.474456 -0.871639 -4.502649 -0.169739 -2.176747 5.805088 -0.012936 0.129893 0.011817 -0.436496 -0.716885 6.825512 -3.028682 2.457897 -5.119059 0.000000 0.000000 0.000000 1.082932 -0.072262 3.873972 -11.745864 -5.682234 1.992476 -51.383107 -22.275566 -0.020465 3.173122 -20.300005 1.288595 0.000000 0.000000 0.000000 -3.317971 1.319763 3.245166 30.956169 1.724108 6.960691 41.863971 8.087801 3.531433 -0.679038 23.555830 -1.837782 0.000000 0.000000 0.000000 
3.781831 80.925018 4.832501 -179.931293 1.831309 -179.933083 -1.283757 -1.512523 12.910729 4.326075 -5.417302 -20.517692 5.433242 2.664478 27.464186 -1.508616 -6.959502 -11.912747 0.000000 0.000000 0.000000 2.711759 -2.045816 13.433311 -4.931025 5.608796 -21.922827 1.409468 6.821263 31.346883 12.108581 6.637078 -15.219258 0.000000 0.000000 0.000000 5.534631 0.796598 1.537985 -1.704381 -0.790284 -4.234067 -0.209713 -2.061733 5.668859 -0.001186 0.008199 -0.001856 -0.578531 -0.728265 6.677890 -3.359614 2.342610 -5.184979 0.000000 0.000000 0.000000 0.982951 0.026561 3.754214 -11.572670 -5.754995 1.949671 -50.250422 -24.101612 -1.637035 2.957495 -21.875689 0.611123 0.000000 0.000000 0.000000 -3.463174 1.450244 3.079472 31.148330 1.805019 6.717115 41.531416 8.492606 3.358394 -0.512624 24.440727 -1.769781 0.000000 0.000000 0.000000 
4.049076 80.967186 4.981443 -179.859631 2.119935 -179.942427 -1.311236 -1.451933 12.533537 4.501850 -5.243431 -20.372685 5.607436 2.546668 27.780442 -1.696386 -7.087251 -11.647686 0.000000 0.000000 0.000000 2.828445 -1.773829 12.927502 -4.735526 6.092776 -21.367972 1.321049 6.548023 31.076449 11.896278 6.571187 -15.201500 0.000000 0.000000 0.000000 5.672305 0.823874 1.283010 -1.876358 -0.730429 -3.956077 -0.283580 -1.981034 5.535456 -0.002913 0.025917 0.005692 -0.680116 -0.659023 6.478784 -3.752583 2.279955 -5.145907 0.000000 0.000000 0.000000 0.904030 0.021563 3.543257 -11.345001 -5.640804 1.857400 -49.254560 -25.447601 -3.901154 2.875709 -23.745489 -0.020392 0.000000 0.000000 0.000000 -3.580999 1.475110 2.881914 31.177481 1.809959 6.425028 41.526266 8.748353 3.196035 -0.416643 25.234045 -1.784932 0.000000 0.000000 0.000000 
